G04 ================== begin FILE IDENTIFICATION RECORD ==================*
G04 Layout Name:  D:/LayoutPCB/pedal_control_bluetooth/bluttooth.brd*
G04 Film Name:    buttom-layer2*
G04 File Format:  Gerber RS274X*
G04 File Origin:  Cadence Allegro 16.6-P004*
G04 Origin Date:  Fri Jul 25 11:42:20 2014*
G04 *
G04 Layer:  VIA CLASS/BOTTOM*
G04 Layer:  PIN/BOTTOM*
G04 Layer:  ETCH/BOTTOM*
G04 Layer:  DRAWING FORMAT/OUTLINE*
G04 Layer:  DRAWING FORMAT/TITLE_BLOCK*
G04 Layer:  DRAWING FORMAT/TITLE_DATA*
G04 Layer:  DRAWING FORMAT/REVISION_BLOCK*
G04 Layer:  DRAWING FORMAT/REVISION_DATA*
G04 Layer:  BOARD GEOMETRY/OUTLINE*
G04 *
G04 Offset:    (0.00 0.00)*
G04 Mirror:    No*
G04 Mode:      Positive*
G04 Rotation:  0*
G04 FullContactRelief:  No*
G04 UndefLineWidth:     2.00*
G04 ================== end FILE IDENTIFICATION RECORD ====================*
%FSLAX25Y25*MOIN*%
%IR0*IPPOS*OFA0.00000B0.00000*MIA0B0*SFA1.00000B1.00000*%
%ADD20C,.05*%
%ADD12C,.06*%
%ADD16C,.028*%
%ADD19R,.05X.05*%
%ADD14C,.05906*%
%ADD15R,.05906X.05906*%
%ADD23R,.03X.04*%
%ADD22R,.04X.04*%
%ADD18R,.04X.04*%
%ADD13R,.06X.05*%
%ADD21R,.088X.045*%
%AMMACRO11*
21,1,.07874,.08661,0.0,0.0,135.*
1,1,.07874,.030621,.030621*
1,1,.07874,-.030621,-.030621*%
%ADD11MACRO11*%
%AMMACRO10*
21,1,.08661,.07874,0.0,0.0,135.*
1,1,.07874,-.030621,.030621*
1,1,.07874,.030621,-.030621*%
%ADD10MACRO10*%
%ADD17O,.05906X.07874*%
%ADD24C,.01*%
%ADD25C,.002*%
%ADD26C,.008*%
%ADD29C,.08004*%
%ADD28C,.09004*%
%ADD27C,.11814*%
%ADD30C,.11815*%
G75*
%LPD*%
G75*
G36*
G01X-88316Y-125258D02*
G02X-88909Y-125290I-311J252D01*
G01X-132077Y-82494D01*
G02X-132046Y-81898I281J284D01*
G03X-131595Y88244I-68521J85253D01*
G02X-131623Y88839I253J310D01*
G01X-88264Y131543D01*
G02X-87672Y131508I280J-285D01*
G03X80279Y131796I83860J67232D01*
G02X80872Y131832I313J-249D01*
G01X124948Y88510D01*
G02X124918Y87913I-281J-285D01*
G03X84598Y12365I68378J-85027D01*
G02X83800Y12399I-398J34D01*
G01Y39674D01*
X83257Y40216D01*
G02X83638Y40887I283J283D01*
G03X82158Y45602I712J2813D01*
G01X66316D01*
Y56633D01*
G03Y61017I-1902J2192D01*
G01Y100819D01*
G03X62512I-1902J2192D01*
G01Y84812D01*
X41012D01*
X39098Y82899D01*
Y63034D01*
X30861D01*
Y64635D01*
X23857D01*
Y3102D01*
X11548D01*
Y1593D01*
G02X10978Y1230I-400J-1D01*
G03X7558Y502I-1228J-2629D01*
G01X-7698D01*
Y27033D01*
G02X-7109Y27386I400J0D01*
G03X-3842Y32139I1365J2561D01*
G01Y67584D01*
X-69792D01*
Y99308D01*
X-71612D01*
G03X-74133Y93184I-4081J-1901D01*
G02X-73595Y92809I138J-375D01*
G01Y63782D01*
X-31261D01*
Y15790D01*
X-32660D01*
Y-27852D01*
X-12235D01*
G02X-11904Y-28475I0J-400D01*
G03X-11400Y-32292I2405J-1624D01*
G01Y-83688D01*
X-10667Y-84421D01*
G02X-10923Y-85103I-283J-283D01*
G03X-88316Y-125258I7369J-108862D01*
G37*
G36*
G01X79259Y-84158D02*
G03X74608Y-83798I-2459J-1542D01*
G01X70602D01*
Y-70388D01*
G02X71038Y-69990I400J0D01*
G03X73202Y-64908I262J2890D01*
G01Y-58468D01*
X75502D01*
Y-56159D01*
G03X71360Y-52122I-1902J2192D01*
G02X70652Y-51867I-308J255D01*
G01Y4902D01*
X50152D01*
Y15652D01*
X45638D01*
G02X45246Y16130I0J400D01*
G03X42694Y19584I-2846J567D01*
G03X37898Y17606I-2894J214D01*
G01Y-2698D01*
X35698D01*
Y-8298D01*
X34798D01*
Y-28900D01*
X36198D01*
Y-34798D01*
X10802D01*
Y-27348D01*
X-1002D01*
Y-34798D01*
X-4848D01*
Y-24048D01*
X-28858D01*
Y-13235D01*
X-24371D01*
Y-19141D01*
X21568D01*
Y-20208D01*
G03X25370I1901J-2192D01*
G01Y-13235D01*
X30861D01*
Y-5730D01*
X33460D01*
Y7755D01*
G03Y12139I-1901J2192D01*
G01Y25148D01*
X46102D01*
Y37698D01*
X47202D01*
Y44702D01*
X46102D01*
Y46592D01*
X42902Y49792D01*
Y81010D01*
X62512D01*
Y61017D01*
G03Y56633I1902J-2192D01*
G01Y46052D01*
X54248D01*
Y29798D01*
X64798D01*
Y13492D01*
G03X68602I1902J-2192D01*
G01Y28422D01*
G02X69050Y28819I400J0D01*
G03X67209Y33602I351J2881D01*
G01X58052D01*
Y36712D01*
G02X58488Y37110I400J0D01*
G03X60942Y38098I262J2890D01*
G01X79110D01*
X79112Y38096D01*
X79996D01*
Y-83999D01*
X79979Y-84073D01*
X79945Y-84147D01*
X79902Y-84209D01*
X79846Y-84262D01*
X79810Y-84284D01*
G02X79259Y-84158I-213J338D01*
G37*
G36*
G01X-24257Y-12137D02*
Y176D01*
X-22858D01*
Y34196D01*
X-20336D01*
G02X-20005Y33572I0J-400D01*
G03X-19502Y29755I2405J-1625D01*
G01Y-12137D01*
X-24257D01*
G37*
G36*
G01X10802Y-81000D02*
Y-74748D01*
X3002D01*
Y-66848D01*
X-7598D01*
Y-50652D01*
X-1002D01*
Y-58552D01*
X10802D01*
Y-51048D01*
X3002D01*
Y-43148D01*
X-7598D01*
Y-38602D01*
X50590D01*
Y-41302D01*
X56802D01*
Y-37442D01*
G03X57087Y-37158I-1901J2193D01*
G02X57438Y-37289I151J-131D01*
G01Y-65177D01*
X45207Y-77408D01*
X45119Y-77404D01*
G03X42125Y-80701I-119J-2900D01*
G01X42146Y-80853D01*
X41829Y-80985D01*
X41753Y-81000D01*
X10802D01*
G37*
G36*
G01X-846Y-10000D02*
G03X287Y-6452I-1554J2451D01*
G02X657Y-5900I370J152D01*
G01X11257D01*
G03X15350Y-1807I2192J1901D01*
G01Y-700D01*
X21998D01*
Y-5730D01*
X23857D01*
Y-10738D01*
X-632D01*
G02X-846Y-10000I0J400D01*
G37*
G36*
G01X81995Y-94800D02*
X81806Y-94604D01*
Y-87535D01*
X81828Y-87513D01*
X82187Y-87287D01*
X82791Y-86717D01*
X83270Y-86039D01*
X83440Y-85659D01*
G02X83802Y-85776I162J-117D01*
G01Y-94760D01*
G02X83220Y-95116I-400J0D01*
G03X81995Y-94800I-1320J-2584D01*
G37*
%LPC*%
G75*
G36*
G01X-82941Y-101800D02*
G02X-90632Y-94109I-3845J3846D01*
G01X-84507Y-87984D01*
G02X-76816Y-95675I3845J-3846D01*
G01X-82941Y-101800D01*
G37*
G36*
G01X-98809Y-89934D02*
G02X-106500Y-97625I-3846J-3845D01*
G01X-112625Y-91500D01*
G02X-104934Y-83809I3846J3845D01*
G01X-98809Y-89934D01*
G37*
G36*
G01X16102Y9098D02*
X17558D01*
G02Y5296I2192J-1901D01*
G01X12298D01*
Y6366D01*
G03X11862Y6764I-400J0D01*
G02X13792Y11556I-262J2890D01*
G01X16102D01*
Y9098D01*
G37*
G36*
G01X-36298Y5798D02*
Y5394D01*
X-36234Y5335D01*
G02X-40166I-1966J-2135D01*
G01X-40102Y5394D01*
Y5798D01*
X-42202D01*
Y13802D01*
X-34198D01*
Y5798D01*
X-36298D01*
G37*
G36*
G01X-56702Y-318D02*
Y34888D01*
X-43296Y48293D01*
X-43300Y48381D01*
G02X-40519Y45600I2900J119D01*
G01X-40607Y45604D01*
X-52898Y33312D01*
Y-7075D01*
G03X-52273Y-7405I400J0D01*
G02X-47734Y-9919I1639J-2395D01*
G01X-47738Y-10007D01*
X-46498Y-11246D01*
Y-11651D01*
G03X-46087Y-12050I400J0D01*
G02X-42472Y-13726I132J-4453D01*
G03X-41823Y-13694I313J249D01*
G02X-33626Y-16110I3742J-2416D01*
G01Y-18078D01*
G02X-41564Y-20855I-4455J0D01*
G03X-42213Y-20887I-313J-249D01*
G02X-44054Y-22499I-3742J2416D01*
G01Y-35398D01*
X-28892D01*
G02Y-39202I2192J-1902D01*
G01X-40394D01*
G03X-40677Y-39884I0J-400D01*
G01X-33307Y-47254D01*
X-33219Y-47250D01*
G02X-36000Y-50031I119J-2900D01*
G01X-35996Y-49943D01*
X-42538Y-43402D01*
X-48388D01*
X-50302Y-41488D01*
Y-22405D01*
X-51810Y-20897D01*
Y-14077D01*
X-51044Y-13311D01*
G03X-51242Y-12637I-283J283D01*
G02X-52273Y-12195I606J2838D01*
G03X-52898Y-12525I-225J-330D01*
G01Y-17002D01*
X-58498D01*
Y-19102D01*
X-65098D01*
Y-74802D01*
X-79049D01*
G03X-79446Y-75254I0J-400D01*
G02X-88683Y-79808I-5392J-708D01*
G01X-94808Y-73683D01*
G02X-87117Y-65992I3846J3845D01*
G01X-82110Y-70998D01*
X-68902D01*
Y-19102D01*
X-76502D01*
Y-11098D01*
X-58498D01*
Y-13198D01*
X-56702D01*
Y-7287D01*
G03X-57138Y-6889I-400J0D01*
G02X-58683Y-6602I-262J2890D01*
G01X-76102D01*
Y1402D01*
X-64502D01*
Y15102D01*
X-75250D01*
G03X-75551Y14438I0J-400D01*
G02X-82249I-3349J-2938D01*
G03X-82550Y15102I-301J264D01*
G01X-84754D01*
Y53402D01*
X-83354D01*
Y55954D01*
X-74446D01*
Y47046D01*
X-80952D01*
Y46065D01*
G03X-80415Y45689I400J0D01*
G02Y37311I1515J-4189D01*
G03X-80952Y36935I-137J-376D01*
G01Y36065D01*
G03X-80415Y35689I400J0D01*
G02X-74871Y33402I1516J-4189D01*
G01X-69448D01*
Y39755D01*
G02X-65646I1901J2192D01*
G01Y29598D01*
X-74871D01*
G02X-80415Y27311I-4028J1902D01*
G03X-80952Y26935I-137J-376D01*
G01Y26065D01*
G03X-80415Y25689I400J0D01*
G02X-74927Y19485I1515J-4189D01*
G03X-74570Y18904I357J-181D01*
G01X-60698D01*
Y1402D01*
X-58098D01*
Y-698D01*
X-57400D01*
G02X-57153Y-715I-7J-1902D01*
G03X-56702Y-318I51J397D01*
G37*
G54D29*
X-38200Y30666D03*
G54D28*
X-96907Y76193D03*
X-82764Y90336D03*
X-89836Y83264D03*
G54D27*
X-56940Y-50500D03*
Y56272D03*
G54D30*
X49831D03*
Y-50500D03*
%LPD*%
G75*
G36*
G01X-27818Y68515D02*
Y88200D01*
X27300D01*
Y68515D01*
X-27818D01*
G37*
G54D10*
X-105717Y-90717D03*
X-87900Y-72900D03*
G54D11*
X-83724Y-94892D03*
G54D20*
X-38200Y30666D03*
G54D21*
X-2900Y-70600D03*
Y-46900D03*
X4900Y-78500D03*
Y-54800D03*
Y-31100D03*
G54D12*
X-96907Y76193D03*
X-89836Y83264D03*
X-82764Y90336D03*
X-75693Y97407D03*
G54D13*
X-62600Y-2600D03*
X-71600D03*
X-63000Y-15100D03*
X-72000D03*
X49700Y-32500D03*
X40700D03*
X49700Y-18700D03*
X40700D03*
X49200Y-6700D03*
X40200D03*
G54D22*
X-20869Y-15639D03*
X-14964D03*
X-9058D03*
X-3153D03*
X2753D03*
X8658D03*
X14564D03*
X20469D03*
G54D23*
X44200Y9200D03*
Y41200D03*
G54D14*
X-78900Y11500D03*
Y31500D03*
Y21500D03*
Y41500D03*
G54D24*
G01X81600Y-127400D02*
X81849Y-127676D01*
G54D15*
X-78900Y51500D03*
G54D25*
G01X-88594Y-125603D02*
X-132398Y-82178D01*
G03X-131944Y88525I-68169J85533D01*
G01X-87948Y131855D01*
G03X80555Y132145I84137J66885D01*
G01X125271Y88194D01*
G03X125157Y-82332I68025J-85309D01*
G01X81706Y-125878D01*
G03X-88594Y-125603I-85260J-68086D01*
G01X-51035Y-50500D02*
G03I-5905J0D01*
G01Y56272D02*
G03I-5905J0D01*
G01X55737Y-50500D02*
G03I-5906J0D01*
G01Y56272D02*
G03I-5906J0D01*
G54D16*
X-67547Y41947D03*
X-50634Y-9800D03*
X-57400Y-3999D03*
X-33100Y-50150D03*
X-26700Y-37300D03*
X-38200Y3200D03*
X-40400Y48500D03*
X-9499Y-30100D03*
X-16300Y-21300D03*
X-8550Y-3999D03*
X-11300Y-7549D03*
X-20869Y3700D03*
X-17600Y31947D03*
X-5744Y29947D03*
X13449Y-3999D03*
X-2400Y-7549D03*
X9750Y-1399D03*
X11600Y9654D03*
X25900Y-39300D03*
X23469Y-22400D03*
X19750Y-1399D03*
X34650Y4000D03*
X31559Y9947D03*
X19750Y7197D03*
X36209Y31700D03*
X52750Y-92500D03*
X44051Y-65550D03*
X45000Y-80304D03*
X54900Y-35250D03*
X48500Y-12801D03*
X42400Y16697D03*
X47800Y18200D03*
X39800Y19798D03*
X39300Y45500D03*
X52694Y80311D03*
X60939Y-101463D03*
X63550Y-92500D03*
X71300Y-67100D03*
X73600Y-53967D03*
X66150Y-35250D03*
X57500Y-23650D03*
X66700Y11300D03*
X69401Y31700D03*
X58750Y40000D03*
X64414Y58825D03*
Y103011D03*
X76800Y-85700D03*
X81900Y-97700D03*
X85951Y-71300D03*
X84350Y43700D03*
X105800Y-71300D03*
G54D26*
G01X-105717Y-55519D02*
Y-90717D01*
G01X-112767Y-83667D02*
X-105717Y-90717D01*
G01D02*
X-98667Y-97767D01*
G01X-109704Y-94704D02*
X-105717Y-90717D01*
G01D02*
X-101730Y-86730D01*
G01X-76000Y-55519D02*
X-105717D01*
G01X-87900Y-72900D02*
X-67000D01*
Y-15100D01*
X-63000D01*
G01X-78900Y11500D02*
X-87692D01*
G01D02*
Y76193D01*
G01X-78900Y51500D02*
X-82853D01*
Y17003D01*
X-62600D01*
Y-2600D01*
G01X-96907Y71491D02*
Y76193D01*
G01X-87692D02*
X-96907D01*
G01D02*
Y80895D01*
G01X-101609Y76193D02*
X-96907D01*
G01X-76000Y-15100D02*
Y-55519D01*
G01Y-15100D02*
Y-2600D01*
G01X-72000Y-15100D02*
X-76000D01*
G01X-71600Y-6802D02*
Y-2600D01*
G01X-72000Y-19302D02*
Y-15100D01*
G01D02*
Y-10898D01*
G01X-63000Y-15100D02*
X-54800D01*
Y34100D01*
X-40400Y48500D01*
G01X-71600Y-2600D02*
X-76000D01*
G01D02*
X-78900D01*
G01D02*
Y11500D01*
G01X-71600Y-2600D02*
Y1602D01*
G01X-62600Y-2600D02*
X-57400D01*
Y-3999D01*
G01X-78900Y31500D02*
X-67547D01*
Y41947D01*
G01X-75693Y97407D02*
X-71693D01*
Y65683D01*
X-5744D01*
Y29947D01*
G01X-33100Y-50150D02*
X-41750Y-41500D01*
X-47600D01*
X-48400Y-40700D01*
Y-21617D01*
X-49908Y-20109D01*
Y-14865D01*
X-48400Y-13357D01*
Y-12034D01*
X-50634Y-9800D01*
G01X-45955Y-17487D02*
Y-37300D01*
X-26700D01*
G01X-27759Y13889D02*
X-30759D01*
Y-25950D01*
X-6749D01*
Y-36700D01*
X52491D01*
Y-39400D01*
X54900D01*
Y-35250D01*
G01X-20869Y-9733D02*
X-27759D01*
G01X-38200Y3200D02*
Y9800D01*
G01X-27759Y2078D02*
X-24759D01*
Y36097D01*
X-9599D01*
Y-1399D01*
X9750D01*
G01X52750Y-92500D02*
Y-84500D01*
X51950Y-83700D01*
X47475D01*
X46721Y-84454D01*
X43741D01*
X43733Y-84452D01*
X9371D01*
X8619Y-83700D01*
X-8699D01*
X-9499Y-82900D01*
Y-30100D01*
G01X33601Y-27000D02*
X-1700D01*
Y-21300D01*
X-16300D01*
G01X-20869Y-15639D02*
Y-9733D01*
G01Y-15639D02*
Y-21300D01*
G01Y-9733D02*
Y3700D01*
G01Y-21300D02*
X-16300D01*
G01X13449Y-3999D02*
X-8550D01*
G01X-17600Y31947D02*
Y-12639D01*
X23469D01*
Y-22400D01*
G01X-11300Y-7549D02*
X-2400D01*
G01X-2900Y-70600D02*
Y-81350D01*
X-2100Y-82150D01*
X9262D01*
X10014Y-82902D01*
X41939D01*
X42384Y-82814D01*
X42802Y-82640D01*
X43658D01*
X43922Y-82904D01*
X46078D01*
X46832Y-82150D01*
X53546D01*
X54300Y-82904D01*
X60139D01*
X60939Y-83704D01*
Y-101463D01*
G01X25900Y-78500D02*
X4900D01*
G01X27359Y-3828D02*
X23900D01*
Y1201D01*
X13449D01*
Y-3999D01*
G01X11600Y9654D02*
X14200D01*
Y7197D01*
X19750D01*
G01X25900Y-39300D02*
Y-65550D01*
G01D02*
Y-78500D01*
G01Y-65550D02*
X44051D01*
G01X40700Y-32500D02*
X33601D01*
G01Y-27000D02*
Y-9733D01*
G01Y-32500D02*
Y-27000D01*
G01X27359Y-9733D02*
X19750D01*
G01X34650Y-3200D02*
Y-9733D01*
X33601D01*
G01D02*
X27359D01*
G01X19750D02*
Y-1399D01*
G01X31559Y9947D02*
Y-3828D01*
X27359D01*
G01X34650Y4000D02*
Y-3200D01*
G01X47800Y22399D02*
X34650D01*
Y4000D01*
G01Y-3200D02*
X44700D01*
Y-18700D01*
X49700D01*
G01X44200Y41200D02*
Y27049D01*
X31559D01*
Y9947D01*
G01X27359Y61133D02*
X38650D01*
X39450Y60333D01*
Y48250D01*
X39300Y48100D01*
Y45500D01*
G01X27359Y55228D02*
X36209D01*
Y31700D01*
G01X57500Y-23650D02*
X59339Y-25489D01*
Y-65965D01*
X45000Y-80304D01*
G01X40200Y-6700D02*
Y-10200D01*
X36700D01*
Y-26999D01*
X49700D01*
Y-32500D01*
G01X40700Y-18700D02*
Y-20800D01*
X44700D01*
Y-24350D01*
X54900D01*
Y-35250D01*
G01X49200Y-6700D02*
Y-10200D01*
X52651D01*
Y-12801D01*
X48500D01*
G01X44200Y9200D02*
Y1450D01*
X66150D01*
Y-35250D01*
G01X39800Y19798D02*
Y-1650D01*
X63550D01*
Y-92500D01*
G01X76800Y-85700D02*
X68700D01*
Y-58800D01*
X68750D01*
Y3000D01*
X48250D01*
Y13750D01*
X42400D01*
Y16697D01*
G01X52694Y80311D02*
X60900D01*
Y46317D01*
X47800D01*
Y22399D01*
G01D02*
Y18200D01*
G01X64414Y82911D02*
X41800D01*
X41000Y82111D01*
Y48800D01*
X41800Y48000D01*
X42004D01*
X44200Y45804D01*
Y41200D01*
G01X71300Y-67100D02*
Y-56567D01*
X73600D01*
Y-53967D01*
G01X66700Y31700D02*
Y11300D01*
G01X64414Y44150D02*
X56150D01*
Y31700D01*
X66700D01*
G01X69401D02*
X66700D01*
G01X64414Y44150D02*
Y58825D01*
G01X84350Y43700D02*
X64414D01*
Y44150D01*
G01X58750Y40000D02*
X79898D01*
X79900Y39998D01*
X80786D01*
X81898Y38886D01*
Y-83981D01*
X81892Y-84236D01*
X81791Y-84678D01*
X81606Y-85092D01*
X81345Y-85462D01*
X81015Y-85773D01*
X80632Y-86014D01*
X79900Y-86746D01*
Y-95700D01*
X81900Y-97700D01*
G01X64414Y58825D02*
Y82911D01*
G01D02*
Y103011D01*
G01X85951Y-71300D02*
X105800D01*
G54D17*
X-45955Y-17487D03*
X-38081Y-17094D03*
G54D18*
X-27759Y-3828D03*
Y-9733D03*
Y13889D03*
Y7983D03*
Y2078D03*
Y31606D03*
Y25700D03*
Y19794D03*
Y55228D03*
Y49322D03*
Y43417D03*
Y37511D03*
Y61133D03*
X27359Y-9733D03*
Y-3828D03*
Y2078D03*
Y7983D03*
Y13889D03*
Y19794D03*
Y25700D03*
Y31606D03*
Y37511D03*
Y43417D03*
Y49322D03*
Y55228D03*
Y61133D03*
G54D19*
X-38200Y9800D03*
M02*
