G04 ================== begin FILE IDENTIFICATION RECORD ==================*
G04 Layout Name:  D:/LayoutPCB/pedal_control_bluetooth/bluttooth.brd*
G04 Film Name:    smdbtm*
G04 File Format:  Gerber RS274X*
G04 File Origin:  Cadence Allegro 16.6-P004*
G04 Origin Date:  Fri Jul 25 11:42:20 2014*
G04 *
G04 Layer:  VIA CLASS/PASTEMASK_BOTTOM*
G04 Layer:  PIN/PASTEMASK_BOTTOM*
G04 Layer:  DRAWING FORMAT/OUTLINE*
G04 Layer:  DRAWING FORMAT/TITLE_BLOCK*
G04 Layer:  DRAWING FORMAT/TITLE_DATA*
G04 Layer:  DRAWING FORMAT/REVISION_BLOCK*
G04 Layer:  DRAWING FORMAT/REVISION_DATA*
G04 Layer:  BOARD GEOMETRY/OUTLINE*
G04 *
G04 Offset:    (0.00 0.00)*
G04 Mirror:    No*
G04 Mode:      Positive*
G04 Rotation:  0*
G04 FullContactRelief:  No*
G04 UndefLineWidth:     2.00*
G04 ================== end FILE IDENTIFICATION RECORD ====================*
%FSLAX25Y25*MOIN*%
%IR0*IPPOS*OFA0.00000B0.00000*MIA0B0*SFA1.00000B1.00000*%
%ADD12C,.064*%
%ADD17R,.05X.05*%
%ADD14R,.05906X.05906*%
%ADD20R,.03X.04*%
%ADD19R,.04X.04*%
%ADD16R,.04X.04*%
%ADD13R,.06X.05*%
%ADD18R,.088X.045*%
%AMMACRO11*
21,1,.07874,.08661,0.0,0.0,135.*
1,1,.07874,.030621,.030621*
1,1,.07874,-.030621,-.030621*%
%ADD11MACRO11*%
%AMMACRO10*
21,1,.08661,.07874,0.0,0.0,135.*
1,1,.07874,-.030621,.030621*
1,1,.07874,.030621,-.030621*%
%ADD10MACRO10*%
%ADD15O,.05906X.07874*%
%ADD21C,.01*%
%ADD22C,.002*%
G75*
%LPD*%
G75*
G54D10*
X-105717Y-90717D03*
X-87900Y-72900D03*
G54D11*
X-83724Y-94892D03*
G54D20*
X44200Y9200D03*
Y41200D03*
G54D21*
G01X81600Y-127400D02*
X81849Y-127676D01*
G54D12*
X-96907Y76193D03*
X-89836Y83264D03*
X-82764Y90336D03*
X-75693Y97407D03*
G54D22*
G01X-88594Y-125603D02*
X-132398Y-82178D01*
G03X-131944Y88525I-68169J85533D01*
G01X-87948Y131855D01*
G03X80555Y132145I84137J66885D01*
G01X125271Y88194D01*
G03X125157Y-82332I68025J-85309D01*
G01X81706Y-125878D01*
G03X-88594Y-125603I-85260J-68086D01*
G01X-51035Y-50500D02*
G03I-5905J0D01*
G01Y56272D02*
G03I-5905J0D01*
G01X55737Y-50500D02*
G03I-5906J0D01*
G01Y56272D02*
G03I-5906J0D01*
G54D13*
X-62600Y-2600D03*
X-71600D03*
X-63000Y-15100D03*
X-72000D03*
X49700Y-32500D03*
X40700D03*
X49700Y-18700D03*
X40700D03*
X49200Y-6700D03*
X40200D03*
G54D14*
X-78900Y51500D03*
G54D15*
X-45955Y-17487D03*
X-38081Y-17094D03*
G54D16*
X-27759Y-3828D03*
Y-9733D03*
Y13889D03*
Y7983D03*
Y2078D03*
Y31606D03*
Y25700D03*
Y19794D03*
Y55228D03*
Y49322D03*
Y43417D03*
Y37511D03*
Y61133D03*
X27359Y-9733D03*
Y-3828D03*
Y2078D03*
Y7983D03*
Y13889D03*
Y19794D03*
Y25700D03*
Y31606D03*
Y37511D03*
Y43417D03*
Y49322D03*
Y55228D03*
Y61133D03*
G54D17*
X-38200Y9800D03*
G54D18*
X-2900Y-70600D03*
Y-46900D03*
X4900Y-78500D03*
Y-54800D03*
Y-31100D03*
G54D19*
X-20869Y-15639D03*
X-14964D03*
X-9058D03*
X-3153D03*
X2753D03*
X8658D03*
X14564D03*
X20469D03*
M02*
