G04 ================== begin FILE IDENTIFICATION RECORD ==================*
G04 Layout Name:  bluttooth.brd*
G04 Film Name:    top-layer1*
G04 File Format:  Gerber RS274X*
G04 File Origin:  Cadence Allegro 16.6-P004*
G04 Origin Date:  Tue Nov 25 18:26:45 2014*
G04 *
G04 Layer:  VIA CLASS/TOP*
G04 Layer:  PIN/TOP*
G04 Layer:  ETCH/TOP*
G04 Layer:  DRAWING FORMAT/OUTLINE*
G04 Layer:  DRAWING FORMAT/TITLE_BLOCK*
G04 Layer:  DRAWING FORMAT/TITLE_DATA*
G04 Layer:  DRAWING FORMAT/REVISION_BLOCK*
G04 Layer:  DRAWING FORMAT/REVISION_DATA*
G04 Layer:  BOARD GEOMETRY/OUTLINE*
G04 *
G04 Offset:    (0.00 0.00)*
G04 Mirror:    No*
G04 Mode:      Positive*
G04 Rotation:  0*
G04 FullContactRelief:  No*
G04 UndefLineWidth:     2.00*
G04 ================== end FILE IDENTIFICATION RECORD ====================*
%FSLAX25Y25*MOIN*%
%IR0*IPPOS*OFA0.00000B0.00000*MIA0B0*SFA1.00000B1.00000*%
%ADD20C,.05*%
%ADD12C,.06*%
%ADD16C,.028*%
%ADD18R,.05X.05*%
%ADD24R,.036X.036*%
%ADD14C,.05906*%
%ADD15R,.05906X.05906*%
%AMMACRO27*
4,1,44,-.29175,.00055,
.00055,-.29175,
.001075,-.292192,
.001669,-.292536,
.002314,-.292772,
.00299,-.292892,
.003677,-.292892,
.004353,-.292774,
.004998,-.29254,
.005593,-.292197,
.00612,-.291756,
.00612,-.29175,
.29175,-.00612,
.292194,-.005597,
.292538,-.005003,
.292773,-.004357,
.292892,-.003681,
.292892,-.002995,
.292773,-.002319,
.292538,-.001674,
.292195,-.001079,
.291754,-.000553,
.29175,-.00055,
-.00055,.29175,
-.001075,.292192,
-.001669,.292536,
-.002314,.292772,
-.00299,.292892,
-.003677,.292892,
-.004353,.292774,
-.004998,.29254,
-.005593,.292197,
-.00612,.291756,
-.00612,.29175,
-.29175,.00612,
-.292194,.005597,
-.292538,.005003,
-.292773,.004357,
-.292892,.003681,
-.292892,.002995,
-.292773,.002319,
-.292538,.001674,
-.292195,.001079,
-.291754,.000553,
-.29175,.00055,
0.0*
%
%ADD27MACRO27*%
%AMMACRO26*
4,1,40,-.06626,-.03118,
-.03118,-.06626,
-.030654,-.0667,
-.030059,-.067043,
-.029414,-.067277,
-.028738,-.067396,
-.028051,-.067396,
-.027375,-.067276,
-.02673,-.067041,
-.026136,-.066697,
-.02561,-.06626,
.06626,.02561,
.066699,.026139,
.067042,.026733,
.067277,.027378,
.067396,.028054,
.067396,.02874,
.067277,.029416,
.067042,.030061,
.066699,.030656,
.06626,.03118,
.03118,.06626,
.030654,.0667,
.030059,.067043,
.029414,.067277,
.028738,.067396,
.028051,.067396,
.027375,.067276,
.02673,.067041,
.026136,.066697,
.02561,.06626,
-.06626,-.02561,
-.066699,-.026139,
-.067042,-.026733,
-.067277,-.027378,
-.067396,-.028054,
-.067396,-.02874,
-.067277,-.029416,
-.067042,-.030061,
-.066699,-.030656,
-.06626,-.03118,
0.0*
%
%ADD26MACRO26*%
%ADD19R,.05X.06*%
%ADD13R,.06X.05*%
%ADD25R,.036X.05*%
%ADD23O,.05906X.011*%
%ADD22O,.011X.05906*%
%ADD21R,.088X.045*%
%AMMACRO11*
21,1,.07874,.08661,0.0,0.0,135.*
1,1,.07874,.030621,.030621*
1,1,.07874,-.030621,-.030621*%
%ADD11MACRO11*%
%AMMACRO10*
21,1,.08661,.07874,0.0,0.0,135.*
1,1,.07874,-.030621,.030621*
1,1,.07874,.030621,-.030621*%
%ADD10MACRO10*%
%ADD17O,.05906X.07874*%
%ADD28C,.01*%
%ADD29C,.002*%
%ADD30C,.008*%
%ADD33C,.09004*%
%ADD34C,.0891*%
%ADD31C,.11814*%
%ADD32C,.11815*%
G75*
%LPD*%
G75*
G36*
G01X-88316Y-125258D02*
G02X-88909Y-125290I-311J252D01*
G01X-132077Y-82494D01*
G02X-132046Y-81898I281J284D01*
G03X-131595Y88244I-68521J85253D01*
G02X-131623Y88839I253J310D01*
G01X-88264Y131543D01*
G02X-87672Y131508I280J-285D01*
G03X80279Y131796I83860J67232D01*
G02X80872Y131832I313J-249D01*
G01X86898Y125909D01*
X66252Y105263D01*
X66114Y105363D01*
G03X66445Y100938I-1700J-2352D01*
G02X66726Y100936I139J-143D01*
G01X94896Y72766D01*
G03X97577I1340J1340D01*
G01X119084Y94273D01*
X124948Y88510D01*
G02X124918Y87913I-281J-285D01*
G03X85006Y16246I68378J-85028D01*
G02X84210Y16295I-397J49D01*
G01Y35580D01*
X80774Y39015D01*
G02X81057Y39698I283J283D01*
G01X82102D01*
Y40964D01*
G02X82726Y41295I400J0D01*
G03Y46105I1624J2405D01*
G02X82102Y46436I-224J331D01*
G01Y47702D01*
X74472D01*
Y59675D01*
X74836Y60040D01*
Y61606D01*
X83463Y70232D01*
G03Y72913I-1341J1340D01*
G01X79955Y76421D01*
G03X77274I-1340J-1341D01*
G01X68087Y67234D01*
G03Y64553I1341J-1341D01*
G01X71029Y61611D01*
X70668Y61251D01*
Y49802D01*
X42892D01*
X42792Y49902D01*
X41266D01*
X41166Y50002D01*
X37434D01*
X37234Y49802D01*
X-36412D01*
X-37012Y50402D01*
X-38208D01*
G03X-43227Y47845I-2192J-1902D01*
G02X-43617Y47354I-390J-91D01*
G01X-71496D01*
Y92238D01*
X-78683D01*
G03Y88434I-4081J-1902D01*
G01X-75298D01*
Y55954D01*
X-83354D01*
Y47046D01*
X-75298D01*
Y45150D01*
G02X-75962Y44849I-400J0D01*
G03X-81734Y38063I-2938J-3349D01*
G02X-81989Y37354I-255J-309D01*
G01X-87934D01*
Y79183D01*
G03X-91738I-1902J4081D01*
G01Y33552D01*
X-83465D01*
G02X-83089Y33015I0J-400D01*
G03X-74711I4189J-1515D01*
G02X-74335Y33552I376J137D01*
G01X-62302D01*
Y25898D01*
X-45500D01*
Y19202D01*
X-61298D01*
Y23402D01*
X-74871D01*
G03Y19598I-4029J-1902D01*
G01X-65100D01*
Y6348D01*
X-63702D01*
Y-802D01*
X-62902D01*
Y-5798D01*
X-70502D01*
Y-13802D01*
X-62902D01*
Y-19388D01*
X-50317D01*
X-50279Y-19540D01*
G03X-42213Y-20887I4324J1069D01*
G02X-41564Y-20855I336J-217D01*
G03X-33757Y-19147I3483J2777D01*
G01X-33719Y-18996D01*
X-27576D01*
Y-15502D01*
X-24802D01*
Y-21102D01*
X-6798D01*
Y-19002D01*
X13048D01*
Y-32798D01*
X10802D01*
Y-27348D01*
X-1002D01*
Y-32798D01*
X-7128D01*
G02X-7416Y-32120I-1J400D01*
G03X-11691Y-28198I-2083J2020D01*
G01X-17998D01*
Y-26098D01*
X-36002D01*
Y-34102D01*
X-28602D01*
Y-35108D01*
G03X-29590Y-37562I1902J-2192D01*
G02X-29988Y-37998I-398J-36D01*
G01X-36202D01*
Y-46002D01*
X-18198D01*
Y-37998D01*
X-23412D01*
G02X-23810Y-37562I0J400D01*
G03Y-37038I-2890J262D01*
G02X-23412Y-36602I398J36D01*
G01X37598D01*
Y-47598D01*
X29902D01*
Y-39998D01*
X21898D01*
Y-47598D01*
X20498D01*
Y-73702D01*
X38898D01*
Y-74298D01*
X19952D01*
Y-44998D01*
X3002D01*
Y-43148D01*
X-8802D01*
Y-48248D01*
X-30908D01*
G03Y-52052I-2192J-1902D01*
G01X-1002D01*
Y-58552D01*
X10802D01*
Y-52052D01*
X11498D01*
Y-79792D01*
X11653Y-79946D01*
G02X11370Y-80628I-283J-282D01*
G01X10802D01*
Y-74748D01*
X3002D01*
Y-66848D01*
X-8802D01*
Y-74352D01*
X-1002D01*
Y-80628D01*
X-45398D01*
Y-26012D01*
X-47312Y-24098D01*
X-51098D01*
Y-21998D01*
X-52498D01*
Y-19898D01*
X-70502D01*
Y-27902D01*
X-52498D01*
X-49202D01*
Y-82518D01*
X-47288Y-84432D01*
X37282D01*
Y-87100D01*
G03X37839Y-88445I1902J0D01*
G01X38639Y-89245D01*
G03X38998Y-89526I1343J1346D01*
G01Y-92146D01*
X39886Y-93034D01*
G02X39446Y-93684I-283J-282D01*
G03X-88316Y-125258I-43000J-100281D01*
G37*
G36*
G01X-36116Y1181D02*
G03X-35384Y3902I-2084J2020D01*
G02X-34996Y4398I388J96D01*
G01X-8452D01*
Y1497D01*
G03X-8390Y999I2052J3D01*
G02X-8778Y502I-388J-97D01*
G01X-35828D01*
G02X-36116Y1181I-1J400D01*
G37*
G36*
G01X15180Y-6328D02*
G03X15502Y-1947I-1731J2330D01*
G01Y-752D01*
G02X15692Y-552I200J0D01*
G03X17501Y725I-91J2049D01*
G01X17551Y850D01*
X25098D01*
Y-7050D01*
X15418D01*
G02X15180Y-6328I0J400D01*
G37*
G36*
G01X24302Y-69898D02*
Y-64852D01*
X68564D01*
G02X68895Y-65475I0J-400D01*
G03X68410Y-67362I2405J-1624D01*
G02X68012Y-67798I-398J-36D01*
G01X61798D01*
Y-69898D01*
X56902D01*
Y-67798D01*
X38898D01*
Y-69898D01*
X24302D01*
G37*
G36*
G01X28902Y-4696D02*
Y4652D01*
X21781D01*
G02X21650Y5004I0J200D01*
G03X21942Y5296I-1901J2193D01*
G01X42260D01*
Y8198D01*
X48498D01*
Y2598D01*
X64798D01*
Y-598D01*
X48398D01*
Y-4696D01*
X28902D01*
G37*
G36*
G01X105202Y-101363D02*
Y-91802D01*
X110352D01*
Y-85198D01*
X105202D01*
Y-84502D01*
X106602D01*
Y-76498D01*
X99998D01*
Y-84502D01*
X101398D01*
Y-85198D01*
X96248D01*
Y-91802D01*
X97648D01*
Y-95798D01*
X90606D01*
G02X90323Y-95116I0J400D01*
G01X90352Y-95088D01*
Y-92202D01*
X91752D01*
Y-85598D01*
X85148D01*
Y-92202D01*
X86548D01*
Y-93198D01*
X66838D01*
G02X66440Y-92762I0J400D01*
G03Y-92238I-2890J262D01*
G02X66838Y-91802I398J36D01*
G01X66852D01*
Y-87602D01*
X67748D01*
Y-91802D01*
X74352D01*
Y-88290D01*
G02X75000Y-87976I400J0D01*
G03X77194Y-88575I1800J2276D01*
G02X77648Y-88971I54J-396D01*
G01Y-92202D01*
X84252D01*
Y-85598D01*
X82852D01*
Y-84902D01*
X88002D01*
Y-76898D01*
X86602D01*
Y-75098D01*
X79802D01*
Y-67798D01*
X74588D01*
G02X74190Y-67362I0J400D01*
G03X73705Y-65475I-2890J263D01*
G02X74036Y-64852I331J223D01*
G01X84050D01*
Y-69108D01*
G03X86608Y-74127I1901J-2192D01*
G02X87098Y-74516I90J-390D01*
G01Y-75302D01*
X105102D01*
Y-74588D01*
G02X105538Y-74190I400J0D01*
G03Y-68410I262J2890D01*
G02X105102Y-68012I-36J398D01*
G01Y-67298D01*
X97502D01*
Y-58198D01*
X41402D01*
Y-43302D01*
X65098D01*
Y-45402D01*
X71698D01*
Y-51775D01*
G03X75502I1902J-2192D01*
G01Y-45402D01*
X83102D01*
Y-40087D01*
X84210Y-38980D01*
Y-10523D01*
G02X85006Y-10474I400J0D01*
G03X124809Y-82054I108290J13360D01*
G02X124841Y-82647I-251J-311D01*
G01X105885Y-101646D01*
G02X105202Y-101363I-283J283D01*
G37*
G36*
G01X67398Y22202D02*
X49298D01*
Y14448D01*
X45136D01*
G02X44805Y15072I0J400D01*
G03X42694Y19584I-2405J1625D01*
G03X41702Y21990I-2894J214D01*
G01Y26046D01*
X49450D01*
Y22898D01*
X67398D01*
Y22202D01*
G37*
%LPC*%
G75*
G36*
G01X-80992Y-72117D02*
G02X-88683Y-79808I-3846J-3845D01*
G01X-94808Y-73683D01*
G02X-87117Y-65992I3846J3845D01*
G01X-80992Y-72117D01*
G37*
G36*
G01X-82941Y-101800D02*
G02X-90632Y-94109I-3845J3846D01*
G01X-84507Y-87984D01*
G02X-76816Y-95675I3845J-3846D01*
G01X-82941Y-101800D01*
G37*
G36*
G01X-98809Y-89934D02*
G02X-106500Y-97625I-3846J-3845D01*
G01X-112625Y-91500D01*
G02X-104934Y-83809I3846J3845D01*
G01X-98809Y-89934D01*
G37*
G36*
G01X69321Y87055D02*
G02Y84374I-1341J-1340D01*
G01X60722Y75775D01*
G03X61005Y75092I283J-283D01*
G01X61804D01*
X70203Y83492D01*
G02X72884I1340J-1341D01*
G01X76392Y79984D01*
G02Y77303I-1341J-1340D01*
G01X70606Y71517D01*
Y71290D01*
X70378D01*
X67205Y68116D01*
G02X64524I-1340J1341D01*
G01X62349Y70291D01*
G03X61666Y70008I-283J-283D01*
G01Y60726D01*
X62220D01*
X62279Y60791D01*
G02X62222Y56924I2135J-1965D01*
G01X57863D01*
Y74876D01*
G02X57453Y75187I930J1652D01*
G01X53945Y78695D01*
G02Y81376I1341J1340D01*
G01X63132Y90563D01*
G02X65813I1340J-1341D01*
G01X69321Y87055D01*
G37*
G54D33*
X-96907Y76193D03*
X-75693Y97407D03*
G54D34*
X-78900Y11500D03*
G54D31*
X-56940Y-50500D03*
Y56272D03*
G54D32*
X49831D03*
Y-50500D03*
%LPD*%
G75*
G54D10*
X-105717Y-90717D03*
X-87900Y-72900D03*
G54D11*
X-83724Y-94892D03*
G54D20*
X-38200Y30666D03*
G54D30*
G01X-112767Y-83667D02*
X-105717Y-90717D01*
G01D02*
X-98667Y-97767D01*
G01X-109704Y-94704D02*
X-105717Y-90717D01*
G01D02*
X-101730Y-86730D01*
G01X-78900Y11500D02*
X-84403D01*
G01D02*
Y25453D01*
X-57800D01*
G01X-89836Y83264D02*
Y35453D01*
X-26950D01*
Y27947D01*
X-12447D01*
G01X-96907Y71491D02*
Y76193D01*
G01D02*
Y80895D01*
G01X-101609Y76193D02*
X-96907D01*
G01D02*
X-92205D01*
G01X-82764Y90336D02*
X-73397D01*
Y45453D01*
X-2400D01*
Y37994D01*
G01X-70000Y-20400D02*
Y-23900D01*
X-66000D01*
G01Y-28102D02*
Y-23900D01*
G01D02*
Y-19698D01*
G01X-70000Y3200D02*
Y-9800D01*
G01D02*
X-66000D01*
G01X-70000Y-20400D02*
Y-9800D01*
G01X-51450Y-20400D02*
X-70000D01*
G01X-66000Y-14002D02*
Y-9800D01*
G01D02*
Y-5598D01*
G01X-78900Y11500D02*
Y3200D01*
G01X-70000D02*
X-59200D01*
G01X-78900D02*
X-70000D01*
G01X-78900Y11500D02*
Y16155D01*
G01Y11500D02*
X-74245D01*
G01X-78900Y21500D02*
X-63199D01*
Y8250D01*
X-44650D01*
Y6300D01*
X-8494D01*
Y12254D01*
G01X-6400Y37994D02*
Y41947D01*
X-67547D01*
G01X-78900Y41500D02*
Y37003D01*
X-11900D01*
Y34041D01*
X-4400D01*
Y37994D01*
G01X-57000Y-23900D02*
X-53000D01*
Y-25200D01*
X-52200Y-26000D01*
X-48100D01*
X-47300Y-26800D01*
Y-81730D01*
X-46500Y-82530D01*
X38384D01*
X39184Y-83330D01*
Y-87100D01*
X39984Y-87900D01*
X40100D01*
X40900Y-88700D01*
Y-91358D01*
X42392Y-92850D01*
X44912D01*
X45712Y-93650D01*
Y-94300D01*
X46512Y-95100D01*
X87650D01*
X88450Y-94300D01*
Y-88900D01*
G01X-57000Y-9800D02*
X-50634D01*
G01X-36700Y-22424D02*
X-51450D01*
Y-20400D01*
G01X-8550Y-3999D02*
X-57400D01*
G01X-45955Y-17487D02*
X-61000D01*
Y-1399D01*
X-4400D01*
Y3900D01*
G01X-50000Y15200D02*
X-43599D01*
Y17400D01*
G01X-50200Y3200D02*
X-38200D01*
G01X-59000Y15200D02*
Y9800D01*
X-38200D01*
G01X-57800Y25453D02*
Y29900D01*
G01X-38200Y30666D02*
X-43599D01*
Y29900D01*
G01D02*
Y17400D01*
G01X-48800Y29900D02*
X-43599D01*
G01X-26400Y13400D02*
Y17400D01*
X-43599D01*
G01X-35700Y-42000D02*
Y-78500D01*
G01D02*
X4900D01*
G01X71050Y-88500D02*
Y-86500D01*
X70250Y-85700D01*
X50400D01*
X49600Y-86500D01*
Y-90500D01*
X48800Y-91300D01*
X43035D01*
X42450Y-90715D01*
Y-87150D01*
X41200Y-85900D01*
Y-80604D01*
X40400Y-79804D01*
X14200D01*
X13400Y-79004D01*
Y-50950D01*
X12600Y-50150D01*
X-33100D01*
G01X-31700Y-46202D02*
Y-42000D01*
G01X-31500Y-30100D02*
X-35700D01*
G01D02*
X-36700D01*
G01X-35700D02*
Y-42000D01*
G01D02*
X-31700D01*
G01X-36700Y-30100D02*
Y-22424D01*
G01X-31700Y-42000D02*
Y-37798D01*
G01X-31500Y-34302D02*
Y-30100D01*
G01D02*
Y-25898D01*
G01X-22700Y-42000D02*
X-26700D01*
Y-37300D01*
G01X35500Y-31200D02*
Y-34700D01*
X-26700D01*
Y-37300D01*
G01X-16300Y-21300D02*
X-18900D01*
Y-22424D01*
X-36700D01*
G01X-25002Y-17100D02*
X-20300D01*
G01X-38081Y-17094D02*
X-29478D01*
Y-13600D01*
X-11300D01*
G01X-12447Y15947D02*
X-19800D01*
Y9400D01*
X-34700D01*
Y9800D01*
X-38200D01*
G01X-26400Y22400D02*
X-24300D01*
Y17947D01*
X-12447D01*
G01X75775Y68733D02*
X72935Y65893D01*
Y60828D01*
X72570Y60463D01*
Y48700D01*
X71770Y47900D01*
X42104D01*
X42004Y48000D01*
X40478D01*
X40378Y48100D01*
X38222D01*
X38022Y47900D01*
X-37200D01*
X-37800Y48500D01*
X-40400D01*
G01X-22500Y-30100D02*
X-9499D01*
G01X-20300Y-17100D02*
X-16300D01*
Y-21300D01*
G01X-20300Y-21302D02*
Y-17100D01*
G01X22300Y-14200D02*
X-5950D01*
Y-3999D01*
X-8550D01*
G01X-11300Y-7549D02*
Y-13600D01*
G01D02*
Y-17100D01*
G01X26500Y-31200D02*
X14950D01*
Y-17100D01*
X-11300D01*
G01X-6400Y3900D02*
X-18269D01*
G01D02*
Y3700D01*
X-20869D01*
G01X57700Y-8100D02*
X47500D01*
Y-6598D01*
X27000D01*
Y2751D01*
X17150D01*
Y12254D01*
X-8494D01*
G01X-12447Y13947D02*
X-8494D01*
Y12254D01*
G01X-12447Y31947D02*
X-17600D01*
G01X-12447Y29947D02*
X-5744D01*
G01X4900Y-78500D02*
Y-74548D01*
G01Y-78500D02*
X11002D01*
G01X-2900Y-46900D02*
X18050D01*
Y-76200D01*
X49000D01*
G01X13600Y3900D02*
Y-1399D01*
X13449D01*
Y-3999D01*
G01X-2400Y3900D02*
Y-7549D01*
G01X9750Y-1399D02*
Y-8951D01*
X45950D01*
Y-10201D01*
X48500D01*
Y-12801D01*
G01X69600Y-41400D02*
X42850D01*
Y-12051D01*
X3600D01*
Y3900D01*
G01X53600Y-29900D02*
X44400D01*
Y-10501D01*
X5600D01*
Y3900D01*
G01X15600D02*
Y-1399D01*
G01D02*
X19750D01*
G01X11600Y3900D02*
Y9654D01*
G01X3600Y37994D02*
Y34041D01*
X17150D01*
Y35850D01*
X73600D01*
Y-53967D01*
G01X11600Y37994D02*
Y41947D01*
X56150D01*
Y40000D01*
X58750D01*
G01X25900Y-53500D02*
Y-62950D01*
X85951D01*
Y-71300D01*
G01X43400Y-71800D02*
X22400D01*
Y-49500D01*
X39500D01*
G01X25900Y-44500D02*
Y-39300D01*
G01X21698Y-44500D02*
X25900D01*
G01D02*
X30102D01*
G01X26300Y-17700D02*
X22300D01*
Y-14200D01*
G01D02*
X39500D01*
Y-49500D01*
G01X35300Y-17700D02*
Y-22400D01*
X23469D01*
G01X34650Y4000D02*
X47800D01*
G01X21647Y9947D02*
X31559D01*
G01X62000Y6600D02*
Y10100D01*
X40359D01*
Y7197D01*
X19750D01*
G01X62800Y18200D02*
Y12547D01*
X27150D01*
Y11947D01*
X21647D01*
G01Y27947D02*
X51351D01*
Y24800D01*
X69300D01*
Y-23650D01*
X57500D01*
G01X21647Y25947D02*
X39800D01*
Y19798D01*
G01X21647Y23947D02*
X30250D01*
Y16697D01*
X42400D01*
G01X52750Y-88500D02*
Y-92500D01*
G01X45250Y-88500D02*
Y-82904D01*
X45000D01*
Y-80304D01*
G01X46651Y-65550D02*
X44051D01*
G01X107050Y-75299D02*
X80850D01*
Y-64500D01*
X46651D01*
Y-65550D01*
G01X66300Y-71800D02*
X52400D01*
G01X67300Y-77000D02*
Y-76200D01*
X49000D01*
G01Y-80500D02*
Y-76200D01*
G01X91600Y-71300D02*
X95600D01*
Y-60100D01*
X39500D01*
Y-49500D01*
G01X66150Y-35250D02*
X54900D01*
G01X47800Y4000D02*
Y-4600D01*
G01D02*
X52900D01*
G01X53700Y-17500D02*
X57700D01*
Y-8100D01*
G01X47800Y4000D02*
Y6600D01*
G01D02*
X53000D01*
G01X47800Y18200D02*
X53800D01*
G01X36209Y31700D02*
X54600D01*
G01D02*
Y27948D01*
X70850D01*
Y-29900D01*
X62600D01*
G01X39300Y45500D02*
X62800D01*
X64600Y43700D01*
G01X52694Y80311D02*
X61633D01*
G01X63550Y-88500D02*
Y-92500D01*
G01X103300Y-80500D02*
Y-101463D01*
X60939D01*
G01X75300Y-71800D02*
X71300D01*
Y-67100D01*
G01X84700Y-80900D02*
Y-77000D01*
X67300D01*
G01Y-80500D02*
Y-77000D01*
G01X62700Y-17500D02*
X66700D01*
Y11300D01*
G01X61900Y-4600D02*
X57700D01*
Y-8100D01*
G01X63600Y31700D02*
X69401D01*
G01X68600Y43700D02*
X64600D01*
G01X78600Y-41400D02*
X79100D01*
X82308Y-38192D01*
Y34792D01*
X79700Y37400D01*
X64600D01*
Y43700D01*
G01X68704Y75804D02*
Y73191D01*
X59765D01*
Y58825D01*
X64414D01*
G01X61633Y82875D02*
Y82876D01*
G01Y80311D02*
Y82875D01*
G01X55558Y76800D02*
X61633Y82875D01*
G01D02*
X67708Y88950D01*
G01X58397Y86111D02*
X61633Y82875D01*
G01D02*
X64869Y79639D01*
G01X95903Y103003D02*
Y103011D01*
X64414D01*
G01X80950Y-88900D02*
Y-85700D01*
X76800D01*
G01X99550Y-88500D02*
Y-97700D01*
X81900D01*
G01X77600Y43700D02*
X84350D01*
G01X75776Y68733D02*
X75775D01*
G01X107050Y-88500D02*
Y-75299D01*
G01Y-92002D02*
Y-88500D01*
G01D02*
X110552D01*
G01X100600Y-71300D02*
X105800D01*
G54D21*
X-2900Y-70600D03*
Y-46900D03*
X4900Y-78500D03*
Y-54800D03*
Y-31100D03*
G54D12*
X-96907Y76193D03*
X-89836Y83264D03*
X-82764Y90336D03*
X-75693Y97407D03*
G54D22*
X-6400Y3900D03*
X-4400D03*
Y37994D03*
X-6400D03*
X-2400Y3900D03*
X-400D03*
X1600D03*
X3600D03*
X5600D03*
X7600D03*
X9600D03*
X11600D03*
X13600D03*
X15600D03*
Y37994D03*
X13600D03*
X11600D03*
X9600D03*
X7600D03*
X5600D03*
X3600D03*
X1600D03*
X-400D03*
X-2400D03*
G54D13*
X-66000Y-23900D03*
Y-9800D03*
X-57000Y-23900D03*
Y-9800D03*
X-59200Y3200D03*
X-50200D03*
X-59000Y15200D03*
X-50000D03*
X-57800Y29900D03*
X-48800D03*
X-31700Y-42000D03*
X-22700D03*
X-31500Y-30100D03*
X-22500D03*
X-20300Y-17100D03*
X-11300D03*
X26500Y-31200D03*
X35500D03*
X26300Y-17700D03*
X35300D03*
X43400Y-71800D03*
X52400D03*
X53600Y-29900D03*
X52900Y-4600D03*
X53700Y-17500D03*
X53000Y6600D03*
X53800Y18200D03*
X54600Y31700D03*
X66300Y-71800D03*
X75300D03*
X69600Y-41400D03*
X62600Y-29900D03*
X61900Y-4600D03*
X62700Y-17500D03*
X62000Y6600D03*
X62800Y18200D03*
X63600Y31700D03*
X68600Y43700D03*
X91600Y-71300D03*
X78600Y-41400D03*
X77600Y43700D03*
X100600Y-71300D03*
G54D23*
X-12447Y15947D03*
Y13947D03*
Y11947D03*
Y9947D03*
Y31947D03*
Y29947D03*
Y27947D03*
Y25947D03*
Y23947D03*
Y21947D03*
Y19947D03*
Y17947D03*
X21647Y9947D03*
Y11947D03*
Y13947D03*
Y15947D03*
Y17947D03*
Y19947D03*
Y21947D03*
Y23947D03*
Y25947D03*
Y27947D03*
Y29947D03*
Y31947D03*
G54D14*
X-78900Y11500D03*
Y31500D03*
Y21500D03*
Y41500D03*
G54D15*
Y51500D03*
G54D24*
X45250Y-88500D03*
X52750D03*
X63550D03*
X71050D03*
X80950Y-88900D03*
X88450D03*
X99550Y-88500D03*
X107050D03*
G54D25*
X49000Y-80500D03*
X67300D03*
X84700Y-80900D03*
X103300Y-80500D03*
G54D16*
X-67547Y41947D03*
X-50634Y-9800D03*
X-57400Y-3999D03*
X-33100Y-50150D03*
X-26700Y-37300D03*
X-38200Y3200D03*
X-40400Y48500D03*
X-9499Y-30100D03*
X-16300Y-21300D03*
X-8550Y-3999D03*
X-11300Y-7549D03*
X-20869Y3700D03*
X-17600Y31947D03*
X-5744Y29947D03*
X13449Y-3999D03*
X-2400Y-7549D03*
X9750Y-1399D03*
X11600Y9654D03*
X25900Y-39300D03*
X23469Y-22400D03*
X19750Y-1399D03*
X34650Y4000D03*
X31559Y9947D03*
X19750Y7197D03*
X36209Y31700D03*
X52750Y-92500D03*
X44051Y-65550D03*
X45000Y-80304D03*
X54900Y-35250D03*
X48500Y-12801D03*
X42400Y16697D03*
X47800Y18200D03*
X39800Y19798D03*
X39300Y45500D03*
X52694Y80311D03*
X60939Y-101463D03*
X63550Y-92500D03*
X71300Y-67100D03*
X73600Y-53967D03*
X66150Y-35250D03*
X57500Y-23650D03*
X66700Y11300D03*
X69401Y31700D03*
X58750Y40000D03*
X64414Y58825D03*
Y103011D03*
X76800Y-85700D03*
X81900Y-97700D03*
X85951Y-71300D03*
X84350Y43700D03*
X105800Y-71300D03*
G54D17*
X-45955Y-17487D03*
X-38081Y-17094D03*
G54D26*
X61633Y82875D03*
X75775Y68733D03*
X68704Y75804D03*
G54D27*
X95903Y103003D03*
G54D18*
X-38200Y9800D03*
G54D28*
G01X81600Y-127400D02*
X81849Y-127676D01*
G54D19*
X-26400Y13400D03*
Y22400D03*
X25900Y-53500D03*
Y-44500D03*
G54D29*
G01X-88594Y-125603D02*
X-132398Y-82178D01*
G03X-131944Y88525I-68169J85533D01*
G01X-87948Y131855D01*
G03X80555Y132145I84137J66885D01*
G01X125271Y88194D01*
G03X125157Y-82332I68025J-85309D01*
G01X81706Y-125878D01*
G03X-88594Y-125603I-85260J-68086D01*
G01X-51035Y-50500D02*
G03I-5905J0D01*
G01Y56272D02*
G03I-5905J0D01*
G01X55737Y-50500D02*
G03I-5906J0D01*
G01Y56272D02*
G03I-5906J0D01*
M02*
